<?xml version="1.0" encoding="UTF-8" standalone="no"?>
<svg
   viewBox="0 0 24 24"
   version="1.1"
   id="svg14"
   sodipodi:docname="connect.svg"
   inkscape:version="1.1.2 (0a00cf5339, 2022-02-04)"
   xmlns:inkscape="http://www.inkscape.org/namespaces/inkscape"
   xmlns:sodipodi="http://sodipodi.sourceforge.net/DTD/sodipodi-0.dtd"
   xmlns="http://www.w3.org/2000/svg"
   xmlns:svg="http://www.w3.org/2000/svg">
  <defs
     id="defs18" />
  <sodipodi:namedview
     id="namedview16"
     pagecolor="#ffffff"
     bordercolor="#666666"
     borderopacity="1.0"
     inkscape:pageshadow="2"
     inkscape:pageopacity="0.0"
     inkscape:pagecheckerboard="0"
     showgrid="false"
     inkscape:zoom="25.721009"
     inkscape:cx="15.415414"
     inkscape:cy="16.095791"
     inkscape:window-width="3440"
     inkscape:window-height="1313"
     inkscape:window-x="1920"
     inkscape:window-y="27"
     inkscape:window-maximized="1"
     inkscape:current-layer="g10"
     showguides="true"
     inkscape:guide-bbox="true">
    <sodipodi:guide
       position="10.694158,10.666667"
       orientation="0.70710678,-0.70710678"
       id="guide45" />
  </sodipodi:namedview>
  <g
     data-name="Layer 2"
     id="g12">
    <g
       data-name="link-2"
       id="g10">
      <rect
         width="24"
         height="24"
         opacity="0"
         id="rect2" />
      <path
         d="M 13.290853,9.2891467 9.2908534,13.289147 a 1,1 0 0 0 0,1.42 1,1 0 0 0 1.4199996,0 l 4,-4 a 1.0040916,1.0040916 0 0 0 -1.42,-1.4200003 z"
         id="path4" />
      <path
         d="m 13.77172,15.905799 -1.28,1.27 a 4.2,4.2 0 0 1 -5.5799996,0.4 4,4 0 0 1 -0.27,-5.930001 l 1.42,-1.43 a 1,1 0 0 0 0,-1.4199997 1,1 0 0 0 -1.42,0 l -1.27,1.2799997 a 6.15,6.15 0 0 0 -0.67,8.070001 6.06,6.06 0 0 0 9.0699996,0.6 l 1.42,-1.42 a 1.0040916,1.0040916 0 0 0 -1.42,-1.42 z"
         id="path6" />
      <path
         d="m 18.15907,4.7136795 a 6.18,6.18 0 0 0 -8.130001,0.68 l -1.0799997,1.1 a 1.09,1.09 0 0 0 -0.17,1.609999 1,1 0 0 0 1.4199997,0 l 1.3,-1.309999 a 4.17,4.17 0 0 1 5.570001,-0.4 4,4 0 0 1 0.27,5.9499985 l -1.42,1.43 a 1,1 0 0 0 0,1.42 1,1 0 0 0 1.42,0 l 1.42,-1.42 a 6.06,6.06 0 0 0 -0.6,-9.0599985 z"
         id="path8" />
    </g>
  </g>
</svg>
