<?xml version="1.0" encoding="UTF-8" standalone="no"?>
<svg
   viewBox="0 0 24 24"
   version="1.1"
   id="svg14"
   sodipodi:docname="disconnect.svg"
   inkscape:version="1.1.2 (0a00cf5339, 2022-02-04)"
   xmlns:inkscape="http://www.inkscape.org/namespaces/inkscape"
   xmlns:sodipodi="http://sodipodi.sourceforge.net/DTD/sodipodi-0.dtd"
   xmlns="http://www.w3.org/2000/svg"
   xmlns:svg="http://www.w3.org/2000/svg">
  <defs
     id="defs18" />
  <sodipodi:namedview
     id="namedview16"
     pagecolor="#ffffff"
     bordercolor="#666666"
     borderopacity="1.0"
     inkscape:pageshadow="2"
     inkscape:pageopacity="0.0"
     inkscape:pagecheckerboard="0"
     showgrid="false"
     inkscape:zoom="36.375"
     inkscape:cx="12"
     inkscape:cy="11.986254"
     inkscape:window-width="3440"
     inkscape:window-height="1313"
     inkscape:window-x="1920"
     inkscape:window-y="27"
     inkscape:window-maximized="1"
     inkscape:current-layer="g10" />
  <g
     data-name="Layer 2"
     id="g12">
    <g
       data-name="link-2"
       id="g10">
      <rect
         width="24"
         height="24"
         opacity="0"
         id="rect2" />
      <path
         d="m 11.29,11.29 -4,4 a 1,1 0 0 0 0,1.42 1,1 0 0 0 1.42,0 l 4,-4 a 1.0040916,1.0040916 0 0 0 -1.42,-1.42 z"
         id="path4" />
      <path
         d="M12.28 17.4L11 18.67a4.2 4.2 0 0 1-5.58.4 4 4 0 0 1-.27-5.93l1.42-1.43a1 1 0 0 0 0-1.42 1 1 0 0 0-1.42 0l-1.27 1.28a6.15 6.15 0 0 0-.67 8.07 6.06 6.06 0 0 0 9.07.6l1.42-1.42a1 1 0 0 0-1.42-1.42z"
         id="path6" />
      <path
         d="M19.66 3.22a6.18 6.18 0 0 0-8.13.68L10.45 5a1.09 1.09 0 0 0-.17 1.61 1 1 0 0 0 1.42 0L13 5.3a4.17 4.17 0 0 1 5.57-.4 4 4 0 0 1 .27 5.95l-1.42 1.43a1 1 0 0 0 0 1.42 1 1 0 0 0 1.42 0l1.42-1.42a6.06 6.06 0 0 0-.6-9.06z"
         id="path8" />
    </g>
  </g>
</svg>
